# xmcd
#
# Track frame offsets:
#	150
#	10847
#	13189
#	26206
#	30931
#	42787
#	49681
#	59717
#	65239
#	81357
#	84652
#	98954
#	106870
#	121583
#	129726
#	146779
#	150878
#	154027
#	158267
#	162155
#	177512
#	181043
#	187271
#	191997
#	200947
#	206494
#	214447
#	219541
#	238392
#	248979
#	260740
#	261913
#	275512
#
# Disc length: 3800 seconds
#
# Revision: 1
# Processed by: cddbd v1.5.2PL0 Copyright (c) Steve Scherf et al.
# Submitted via: audiograbber 1.83.01
#
DISCID=ef0ed621
DTITLE=Burghart Klaussner - CD-NH-1355 - Burghart Klaussner - Je Chante
DYEAR=2003
DGENRE=Chanson
TTITLE0=Je Chante
TTITLE1=Swing Troubador Swing
TTITLE2=Swing Troubador Swing-
TTITLE3=J'ai Connue De Vous
TTITLE4=J'ai Connue De Vous-
TTITLE5=Y'a D'La Joie
TTITLE6=Y'a D'La Joie-
TTITLE7=Que Reste T-Il De Nos Amour
TTITLE8=Que Reste T-Il De Nos Amour-
TTITLE9=Grand Café
TTITLE10=Grand Café-
TTITLE11=Vous Oubliez Votre Cheval
TTITLE12=Vous Oubliez Votre Cheval-
TTITLE13=Mam'zelle Clio
TTITLE14=Mam'zelle Clio-
TTITLE15=Verlaine
TTITLE16=Verlaine
TTITLE17=Verlaine
TTITLE18=Douce France
TTITLE19=Douce France-
TTITLE20=La Mer
TTITLE21=La Mer-
TTITLE22=Fleur Bleue
TTITLE23=Fleur Bleue-
TTITLE24=Fidèle
TTITLE25=Fidèle-
TTITLE26=Laisse Courir Tes Doigts
TTITLE27=Laisse Courir Tes Doigts-
TTITLE28=La Folle Complainte
TTITLE29=J'ai Ta Main
TTITLE30=Boum
TTITLE31=Boum-
TTITLE32=Il Pleut Dans Ma Chambre
EXTD=
EXTT0=
EXTT1=
EXTT2=
EXTT3=
EXTT4=
EXTT5=
EXTT6=
EXTT7=
EXTT8=
EXTT9=
EXTT10=
EXTT11=
EXTT12=
EXTT13=
EXTT14=
EXTT15=
EXTT16=
EXTT17=
EXTT18=
EXTT19=
EXTT20=
EXTT21=
EXTT22=
EXTT23=
EXTT24=
EXTT25=
EXTT26=
EXTT27=
EXTT28=
EXTT29=
EXTT30=
EXTT31=
EXTT32=
PLAYORDER=
